<?xml version="1.0" encoding="utf-8"?>
<!-- Generator: Adobe Illustrator 19.2.0, SVG Export Plug-In . SVG Version: 6.00 Build 0)  -->
<svg version="1.1" id="Layer_1" xmlns="http://www.w3.org/2000/svg" xmlns:xlink="http://www.w3.org/1999/xlink" x="0px" y="0px"
	 viewBox="0 0 70 17.5" style="enable-background:new 0 0 70 17.5;" xml:space="preserve">
<style type="text/css">
	.st0{fill:#FFFFFF;}
	.st1{font-family:'Anders';}
	.st2{font-size:7.2889px;}
</style>
<g>
	<path class="st0" d="M19.3,7.3c0,0.7-0.1,1.4-0.4,2.1s-0.7,1.2-1.2,1.7S16.6,12,16,12.3c-0.7,0.3-1.4,0.4-2.1,0.4s-1.4-0.1-2.1-0.4
		c-0.7-0.3-1.2-0.7-1.7-1.2s-0.9-1-1.1-1.7C8.7,8.8,8.5,8.1,8.5,7.3c0-0.7,0.1-1.4,0.4-2.1C9.2,4.6,9.6,4,10.1,3.5s1.1-0.9,1.7-1.2
		c0.7-0.3,1.4-0.4,2.1-0.4S15.3,2,16,2.3c0.7,0.3,1.2,0.7,1.7,1.2s0.9,1.1,1.2,1.7C19.2,5.9,19.3,6.6,19.3,7.3z M18.9,7.3
		c0-0.7-0.1-1.3-0.4-1.9s-0.6-1.1-1.1-1.6s-1-0.8-1.6-1.1s-1.2-0.4-1.9-0.4S12.6,2.4,12,2.7s-1.1,0.6-1.6,1.1s-0.8,1-1.1,1.6
		C9.1,6,9,6.6,9,7.3s0.1,1.4,0.3,2c0.3,0.6,0.6,1.1,1.1,1.6s1,0.8,1.6,1.1s1.2,0.4,1.9,0.4s1.3-0.1,1.9-0.4c0.6-0.3,1.1-0.6,1.6-1.1
		s0.8-1,1.1-1.6C18.8,8.7,18.9,8,18.9,7.3z"/>
	<path class="st0" d="M29.6,7.3c0,0.7-0.1,1.4-0.4,2.1s-0.7,1.2-1.2,1.7s-1.1,0.9-1.7,1.1c-0.7,0.3-1.4,0.4-2.1,0.4h-1.8
		c-0.1,0-0.1,0-0.2-0.1c0,0-0.1-0.1-0.1-0.2v-10h-0.9v10.2c0,0.1-0.1,0.2-0.2,0.2s-0.1,0-0.1-0.1l-0.1-0.1V2.2c0-0.1,0-0.1,0.1-0.2
		c0,0,0.1-0.1,0.2-0.1h3.1c0.7,0,1.4,0.1,2.1,0.4C26.9,2.6,27.5,3,28,3.5s0.9,1.1,1.2,1.7C29.4,5.9,29.6,6.6,29.6,7.3z M29.1,7.3
		c0-0.7-0.1-1.3-0.4-1.9s-0.6-1.1-1.1-1.6c-0.4-0.4-1-0.8-1.6-1.1s-1.3-0.4-1.9-0.4c-0.3,0-0.5,0-0.8,0s-0.5,0-0.8,0v9.9
		c0.3,0,0.5,0,0.8,0s0.5,0,0.8,0c0.7,0,1.3-0.1,1.9-0.4c0.6-0.3,1.1-0.6,1.6-1.1c0.4-0.4,0.8-1,1.1-1.6C29,8.6,29.1,8,29.1,7.3z"/>
	<path class="st0" d="M41.8,7.3c0,0.7-0.1,1.4-0.4,2.1c-0.3,0.7-0.7,1.2-1.2,1.7s-1.1,0.9-1.7,1.2c-0.7,0.3-1.4,0.4-2.1,0.4
		c-0.7,0-1.4-0.1-2.1-0.4c-0.7-0.3-1.2-0.7-1.7-1.2s-0.9-1.1-1.2-1.7C31.2,8.8,31,8.1,31,7.3c0-0.7,0.1-1.4,0.4-2.1s0.7-1.2,1.2-1.7
		s1.1-0.9,1.7-1.2C35,2,35.7,1.9,36.4,1.9s1.4,0.1,2.1,0.4c0.7,0.3,1.2,0.7,1.7,1.2s0.9,1.1,1.2,1.7C41.7,5.9,41.8,6.6,41.8,7.3z
		 M41.4,7.3c0-0.7-0.1-1.3-0.4-1.9c-0.3-0.6-0.6-1.1-1.1-1.6s-1-0.8-1.6-1.1s-1.2-0.4-1.9-0.4s-1.3,0.1-1.9,0.4
		c-0.6,0.3-1.1,0.6-1.6,1.1s-0.8,1-1.1,1.6c-0.3,0.6-0.4,1.2-0.4,1.9s0.1,1.3,0.4,1.9c0.3,0.6,0.6,1.1,1.1,1.6s1,0.8,1.6,1.1
		s1.2,0.4,1.9,0.4s1.3-0.1,1.9-0.4c0.6-0.3,1.1-0.6,1.6-1.1s0.8-1,1.1-1.6C41.3,8.7,41.4,8,41.4,7.3z"/>
	<g>
		<path class="st0" d="M9,13c-0.3,0-0.6,0-0.9,0c-0.2,0-0.4-0.2-0.5-0.3c-1.4-1.7-2.7-3.3-4.1-5C2.8,6.9,2.9,7,3.5,6.5
			C4.9,5,6.3,3.6,7.7,2.2C7.9,2,8.1,1.9,8.4,2C8.1,2.4,7.8,2.7,7.5,3C6.4,4.1,5.3,5.2,4.2,6.4c-0.3,0.3-0.3,0.4,0,0.7
			c1.5,1.8,3.1,3.7,4.6,5.5C8.9,12.7,8.9,12.8,9,13C9,12.9,9,12.9,9,13z"/>
		<path class="st0" d="M6.2,13c-0.1-0.1-0.2-0.2-0.3-0.3c-1.1-1.4-2.3-2.8-3.4-4.3c-0.1,0-0.2-0.1-0.2-0.1C2.2,8.2,2.1,8.2,2,8.2
			c0,0-0.1,0.1-0.1,0.2c0,0.3,0,0.7,0,1c0,1.1,0,2.1,0,3.1c0,0.3-0.1,0.4-0.4,0.4c-1,0-0.9,0.1-0.9-0.9c0-1.8,0-3.7,0-5.5
			c0-0.1,0.1-0.2,0.1-0.4C0.9,6.3,1,6.3,1,6.4c1.7,2.1,3.4,4.2,5.1,6.4C6.2,12.8,6.2,12.9,6.2,13C6.2,12.9,6.2,13,6.2,13z"/>
		<path class="st0" d="M2.6,6.6C2.3,6.3,2.1,6,1.8,5.7c-0.3-0.4-0.7-0.8-1-1.2C0.7,4.3,0.6,4.1,0.6,3.8c0-0.6,0-1.3,0-1.9
			c0-0.3,0.1-0.4,0.4-0.4c0.4,0,0.9,0,1.3,0c0.2,0,0.4,0.1,0.4,0.3c0,1.6,0,3.1,0,4.7C2.7,6.5,2.7,6.5,2.6,6.6z"/>
	</g>
</g>
<g>
	<polygon class="st0" points="0.6,14 42.3,14.2 0.6,14.4 	"/>
</g>
<text transform="matrix(1 0 0 1 43.4954 14.0003)" class="st0 st1 st2">TeaM</text>
</svg>
